<svg xmlns="http://www.w3.org/2000/svg" width="100%" viewBox="0 0 31 31" fill="none" class="icon-embed"><g clip-path="url(#clip0_200_96)"><path d="M14.557 10.9757L13.8307 13.5734H27.2108L26.1331 17.427H12.753L12.0266 20.0246C11.8324 20.7185 12.2205 21.281 12.8932 21.281H28.2029L28.1984 21.2971C29.3059 19.5064 30.1345 17.5501 30.5967 15.5003C31.0573 13.457 31.1119 11.5061 30.8151 9.71973H16.1264C15.4537 9.71973 14.7512 10.2821 14.5574 10.9761L14.557 10.9757Z" fill="currentColor"></path><path fill-rule="evenodd" clip-rule="evenodd" d="M7.87564 25.134C6.02589 25.1191 4.96228 23.5641 5.49809 21.6483L8.93727 9.35134C9.47565 7.42604 11.4252 5.86557 13.2914 5.86557H15.9859L15.9853 5.86523H29.4981C29.4982 5.86535 29.4983 5.86547 29.4983 5.86558H29.4996C27.5402 2.29181 23.7869 0 18.9954 0C10.6569 0 2.33302 6.93917 0.402751 15.4998C-1.52752 24.0608 3.66639 30.9997 12.0049 30.9997C16.7968 30.9997 21.5837 28.7078 25.1553 25.1341H7.9035C7.89419 25.1341 7.88491 25.134 7.87564 25.134Z" fill="currentColor"></path></g><defs><clipPath id="clip0_200_96"><rect width="31" height="31" fill="currentColor"></rect></clipPath></defs></svg>